<svg width="19" height="18" viewBox="0 0 19 18" fill="none" xmlns="http://www.w3.org/2000/svg">
<path d="M0.966705 2.47125C0.966705 1.89403 1.16941 1.41784 1.57481 1.04267C1.98021 0.667489 2.50725 0.479904 3.15589 0.479904C3.79297 0.479904 4.3084 0.664597 4.70223 1.03402C5.10763 1.41497 5.31033 1.91135 5.31033 2.52319C5.31033 3.07731 5.11343 3.53905 4.7196 3.90847C4.3142 4.28943 3.78138 4.4799 3.12115 4.4799H3.10377C2.4667 4.4799 1.95127 4.28943 1.55744 3.90847C1.16361 3.52752 0.966705 3.04844 0.966705 2.47125ZM1.19257 17.6228V6.05566H5.04972V17.6228H1.19257ZM7.18678 17.6228H11.0439V11.1639C11.0439 10.7598 11.0903 10.4481 11.1829 10.2288C11.3451 9.83632 11.5912 9.50442 11.9213 9.23315C12.2515 8.96186 12.6655 8.82622 13.1636 8.82622C14.4609 8.82622 15.1096 9.69779 15.1096 11.4409V17.6228H18.9667V10.9907C18.9667 9.2822 18.5613 7.98639 17.7505 7.10328C16.9397 6.22016 15.8683 5.7786 14.5362 5.7786C13.042 5.7786 11.8779 6.4193 11.0439 7.70068V7.73531H11.0266L11.0439 7.70068V6.05566H7.18678C7.20994 6.42506 7.22153 7.57369 7.22153 9.50155C7.22153 11.4294 7.20994 14.1365 7.18678 17.6228Z" fill="#009BCB"/>
</svg>
