<svg width="85" height="74" viewBox="0 0 85 74" fill="none" xmlns="http://www.w3.org/2000/svg">
<path d="M43.125 74C36.375 74 30.625 71.6567 25.875 66.97C21.125 62.2833 18.75 56.61 18.75 49.95V47.8225C13.375 46.9592 8.90625 44.4765 5.34375 40.3744C1.78125 36.2723 0 31.4475 0 25.9V7.40001C0 6.35168 0.36 5.47231 1.08 4.76191C1.8 4.05151 2.69 3.69755 3.75 3.70001H11.25C11.25 2.65168 11.61 1.77231 12.33 1.06191C13.05 0.351513 13.94 -0.00245386 15 1.28028e-05C16.0625 1.28028e-05 16.9537 0.355213 17.6737 1.06561C18.3937 1.77601 18.7525 2.65415 18.75 3.70001V11.1C18.75 12.1483 18.39 13.0277 17.67 13.7381C16.95 14.4485 16.06 14.8025 15 14.8C13.9375 14.8 13.0463 14.4448 12.3263 13.7344C11.6063 13.024 11.2475 12.1459 11.25 11.1H7.5V25.9C7.5 29.97 8.96875 33.4542 11.9063 36.3525C14.8438 39.2508 18.375 40.7 22.5 40.7C26.625 40.7 30.1562 39.2508 33.0938 36.3525C36.0312 33.4542 37.5 29.97 37.5 25.9V11.1H33.75C33.75 12.1483 33.39 13.0277 32.67 13.7381C31.95 14.4485 31.06 14.8025 30 14.8C28.9375 14.8 28.0462 14.4448 27.3263 13.7344C26.6062 13.024 26.2475 12.1459 26.25 11.1V3.70001C26.25 2.65168 26.61 1.77231 27.33 1.06191C28.05 0.351513 28.94 -0.00245386 30 1.28028e-05C31.0625 1.28028e-05 31.9538 0.355213 32.6738 1.06561C33.3937 1.77601 33.7525 2.65415 33.75 3.70001H41.25C42.3125 3.70001 43.2038 4.05521 43.9238 4.76561C44.6437 5.47601 45.0025 6.35415 45 7.40001V25.9C45 31.45 43.2188 36.276 39.6562 40.3781C36.0938 44.4802 31.625 46.9616 26.25 47.8225V49.95C26.25 54.575 27.8913 58.5069 31.1737 61.7456C34.4562 64.9843 38.44 66.6025 43.125 66.6C47.8125 66.6 51.7975 64.9806 55.08 61.7419C58.3625 58.5032 60.0025 54.5725 60 49.95V43.7525C57.8125 42.9508 56.015 41.609 54.6075 39.7269C53.2 37.8448 52.4975 35.7025 52.5 33.3C52.5 30.2167 53.5938 27.5958 55.7812 25.4375C57.9688 23.2792 60.625 22.2 63.75 22.2C66.875 22.2 69.5312 23.2792 71.7188 25.4375C73.9062 27.5958 75 30.2167 75 33.3C75 35.705 74.2963 37.8485 72.8888 39.7306C71.4813 41.6127 69.685 42.9533 67.5 43.7525V49.95C67.5 56.61 65.125 62.2833 60.375 66.97C55.625 71.6567 49.875 74 43.125 74ZM63.75 37C64.8125 37 65.7038 36.6448 66.4238 35.9344C67.1438 35.224 67.5025 34.3459 67.5 33.3C67.5 32.2517 67.14 31.3723 66.42 30.6619C65.7 29.9515 64.81 29.5975 63.75 29.6C62.6875 29.6 61.7962 29.9552 61.0762 30.6656C60.3563 31.376 59.9975 32.2541 60 33.3C60 34.3483 60.36 35.2277 61.08 35.9381C61.8 36.6485 62.69 37.0025 63.75 37Z" fill="white"/>
<path d="M65.3981 46.2048C76.1113 46.2048 84.7961 39.2194 84.7961 30.6024C84.7961 21.9854 76.1113 15 65.3981 15C54.6848 15 46 21.9854 46 30.6024C46 39.2194 54.6848 46.2048 65.3981 46.2048Z" fill="#537FB3"/>
<path d="M62.6269 23.1726H68.1692V38.032H62.6269V23.1726Z" fill="white"/>
<path d="M56.1609 28.3734H74.6352V32.8312H56.1609V28.3734Z" fill="white"/>
</svg>
