<svg width="37" height="37" viewBox="0 0 37 37" fill="none" xmlns="http://www.w3.org/2000/svg">
<rect x="0.966675" y="0.0513306" width="36" height="36" rx="8" fill="#E7E6F2"/>
<path fill-rule="evenodd" clip-rule="evenodd" d="M9.96667 18.0513C9.96667 14.4562 9.96667 12.6586 10.8234 11.3639C11.2059 10.7857 11.7011 10.2906 12.2792 9.90802C13.574 9.05133 15.3715 9.05133 18.9667 9.05133C22.5618 9.05133 24.3594 9.05133 25.6541 9.90802C26.2323 10.2906 26.7274 10.7857 27.11 11.3639C27.9667 12.6586 27.9667 14.4562 27.9667 18.0513C27.9667 21.6465 27.9667 23.444 27.11 24.7388C26.7274 25.3169 26.2323 25.8121 25.6541 26.1946C24.3594 27.0513 22.5618 27.0513 18.9667 27.0513C15.3715 27.0513 13.574 27.0513 12.2792 26.1946C11.7011 25.8121 11.2059 25.3169 10.8234 24.7388C9.96667 23.444 9.96667 21.6465 9.96667 18.0513ZM23.6259 18.0516C23.6259 20.6249 21.5398 22.711 18.9665 22.711C16.3932 22.711 14.3071 20.6249 14.3071 18.0516C14.3071 15.4782 16.3932 13.3921 18.9665 13.3921C21.5398 13.3921 23.6259 15.4782 23.6259 18.0516ZM18.9665 21.1346C20.6692 21.1346 22.0495 19.7543 22.0495 18.0516C22.0495 16.3489 20.6692 14.9686 18.9665 14.9686C17.2638 14.9686 15.8835 16.3489 15.8835 18.0516C15.8835 19.7543 17.2638 21.1346 18.9665 21.1346ZM23.8099 14.2529C24.4146 14.2529 24.9048 13.7627 24.9048 13.1581C24.9048 12.5534 24.4146 12.0632 23.8099 12.0632C23.2053 12.0632 22.7151 12.5534 22.7151 13.1581C22.7151 13.7627 23.2053 14.2529 23.8099 14.2529Z" fill="#009BCB"/>
</svg>
