<svg width="19" height="16" viewBox="0 0 19 16" fill="none" xmlns="http://www.w3.org/2000/svg">
<path d="M12.9937 0.752692V0.749451H13.8377L14.1461 0.811043C14.3517 0.851029 14.5384 0.903431 14.7061 0.968264C14.8738 1.0331 15.0361 1.10874 15.193 1.19518C15.3499 1.28162 15.4922 1.3697 15.6199 1.45938C15.7465 1.54799 15.8601 1.642 15.9607 1.74141C16.0603 1.8419 16.2155 1.86783 16.4265 1.81921C16.6375 1.77058 16.8648 1.70304 17.1082 1.6166C17.3517 1.53016 17.5925 1.43291 17.8305 1.32485C18.0686 1.21679 18.2136 1.14818 18.2655 1.119C18.3164 1.08876 18.3434 1.07255 18.3467 1.07038L18.3499 1.06551L18.3661 1.05741L18.3823 1.04931L18.3986 1.0412L18.4148 1.0331L18.4181 1.02824L18.4229 1.02499L18.4278 1.02175L18.431 1.01689L18.4473 1.01203L18.4635 1.00879L18.4603 1.0331L18.4554 1.05741L18.4473 1.08172L18.4392 1.10604L18.431 1.12224L18.4229 1.13845L18.4148 1.16277C18.4094 1.17897 18.404 1.20058 18.3986 1.2276C18.3932 1.25462 18.3418 1.36266 18.2444 1.55177C18.147 1.74087 18.0253 1.93266 17.8792 2.12717C17.7331 2.32167 17.6022 2.46861 17.4864 2.56803C17.3696 2.66853 17.2922 2.73876 17.2543 2.77874C17.2164 2.8198 17.1705 2.85761 17.1163 2.8922L17.0352 2.94569L17.019 2.95379L17.0027 2.9619L16.9995 2.96676L16.9946 2.97L16.9897 2.97324L16.9865 2.97811L16.9703 2.98621L16.954 2.99432L16.9508 2.99918L16.9459 3.00242L16.9411 3.00566L16.9378 3.01052L16.9346 3.01539L16.9297 3.01863L16.9248 3.02187L16.9216 3.02673H17.0027L17.4572 2.92948C17.7602 2.86465 18.0496 2.78631 18.3255 2.69446L18.7638 2.54858L18.8125 2.53238L18.8368 2.52427L18.853 2.51617L18.8693 2.50806L18.8855 2.49996L18.9017 2.49185L18.9342 2.48699L18.9667 2.48375V2.51617L18.9585 2.51941L18.9504 2.52427L18.9472 2.52913L18.9423 2.53238L18.9374 2.53562L18.9342 2.54048L18.931 2.54534L18.9261 2.54858L18.9212 2.55183L18.918 2.55669L18.9147 2.56155L18.9099 2.56479L18.9017 2.581L18.8936 2.59721L18.8888 2.60045C18.8866 2.60369 18.8179 2.69553 18.6826 2.87599C18.5474 3.05753 18.4743 3.14936 18.4635 3.15154C18.4527 3.15478 18.4375 3.17099 18.4181 3.20016C18.3997 3.23041 18.285 3.3509 18.074 3.56161C17.863 3.77232 17.6563 3.95979 17.454 4.12404C17.2505 4.28937 17.1477 4.49251 17.1456 4.73348C17.1423 4.97336 17.1299 5.24459 17.1082 5.54714C17.0866 5.8497 17.046 6.17656 16.9865 6.52775C16.927 6.87894 16.835 7.27604 16.7106 7.71907C16.5861 8.16209 16.4346 8.59432 16.2561 9.01574C16.0776 9.43716 15.8909 9.81535 15.6961 10.1503C15.5014 10.4853 15.3228 10.769 15.1605 11.0013C14.9982 11.2336 14.8332 11.4524 14.6655 11.6577C14.4978 11.863 14.2857 12.0943 14.0293 12.3514C13.7717 12.6075 13.6311 12.748 13.6073 12.7728C13.5824 12.7966 13.4763 12.8852 13.2891 13.0387C13.103 13.1932 12.9028 13.3477 12.6886 13.5022C12.4754 13.6557 12.2796 13.7837 12.101 13.8864C11.9225 13.989 11.7072 14.1062 11.455 14.2381C11.204 14.371 10.9324 14.4942 10.6402 14.6076C10.3481 14.7211 10.0397 14.8265 9.71508 14.9237C9.39046 15.021 9.07667 15.0966 8.77369 15.1506C8.47073 15.2046 8.12717 15.2506 7.74303 15.2884L7.16684 15.3451V15.3532H6.11184V15.3451L5.97387 15.337C5.88191 15.3316 5.80616 15.3262 5.74664 15.3208C5.68714 15.3154 5.4626 15.2857 5.07306 15.2317C4.68352 15.1776 4.37785 15.1236 4.15602 15.0696C3.93421 15.0156 3.60417 14.9129 3.16594 14.7616C2.72771 14.6103 2.35277 14.4574 2.04114 14.3029C1.7306 14.1495 1.53583 14.0522 1.45683 14.0112C1.37892 13.9712 1.29128 13.9215 1.19389 13.8621L1.04781 13.7729L1.04458 13.768L1.0397 13.7648L1.03483 13.7616L1.03158 13.7567L1.01535 13.7486L0.999121 13.7405L0.995891 13.7356L0.991006 13.7324L0.986137 13.7291L0.98289 13.7243L0.97966 13.7194L0.974775 13.7162H0.96666V13.6838L0.98289 13.687L0.999121 13.6919L1.07216 13.7C1.12085 13.7054 1.25341 13.7135 1.46982 13.7243C1.68624 13.7351 1.91616 13.7351 2.15963 13.7243C2.40309 13.7135 2.65197 13.6892 2.90624 13.6513C3.16053 13.6135 3.4608 13.5487 3.80706 13.4568C4.15332 13.365 4.47145 13.2559 4.76145 13.1294C5.05035 13.0019 5.25593 12.9068 5.37822 12.8442C5.4994 12.7826 5.68443 12.668 5.9333 12.5005L6.30661 12.2493L6.30985 12.2445L6.31472 12.2412L6.31961 12.238L6.32284 12.2331L6.32608 12.2282L6.33095 12.225L6.33584 12.2218L6.33907 12.2169L6.3553 12.212L6.37153 12.2088L6.37477 12.1926L6.37964 12.1764L6.38453 12.1731L6.38776 12.1683L6.25791 12.1602C6.17135 12.1548 6.08749 12.1494 6.00633 12.144C5.92518 12.1386 5.79804 12.1143 5.62491 12.071C5.45179 12.0278 5.26514 11.963 5.06495 11.8765C4.86477 11.7901 4.67 11.6874 4.48064 11.5686C4.29129 11.4497 4.1544 11.3508 4.07 11.2719C3.98668 11.1941 3.87847 11.0839 3.74538 10.9413C3.61337 10.7976 3.49867 10.6501 3.40129 10.4988C3.3039 10.3475 3.21085 10.173 3.12213 9.97528L2.9874 9.68028L2.97928 9.65597L2.97117 9.63166L2.9663 9.61545L2.96305 9.59924L2.9874 9.60248L3.01175 9.60735L3.19028 9.63166C3.30932 9.64787 3.49598 9.65326 3.75025 9.64787C4.00454 9.64247 4.18037 9.63166 4.27775 9.61545C4.37514 9.59924 4.43465 9.58843 4.45629 9.58303L4.48875 9.57493L4.52933 9.56682L4.56991 9.55872L4.57315 9.55386L4.57802 9.55062L4.58291 9.54737L4.58614 9.54251L4.55367 9.53441L4.52121 9.5263L4.48875 9.5182L4.45629 9.5101L4.42383 9.50199C4.40219 9.49659 4.36433 9.48578 4.31021 9.46957C4.25611 9.45337 4.11004 9.39393 3.87198 9.29128C3.63394 9.18863 3.44457 9.08868 3.3039 8.99143C3.16288 8.89389 3.02842 8.78723 2.90138 8.67212C2.77477 8.55542 2.63574 8.40522 2.48424 8.22153C2.33276 8.03784 2.19751 7.82442 2.07847 7.5813C1.95945 7.33817 1.87018 7.10585 1.81066 6.88433C1.75138 6.66412 1.71227 6.43897 1.69382 6.21168L1.66459 5.87131L1.68082 5.87455L1.69705 5.87941L1.71328 5.88752L1.72951 5.89562L1.74574 5.90372L1.76197 5.91183L2.01355 6.02529C2.18128 6.10093 2.38957 6.16577 2.63844 6.21979C2.88732 6.27381 3.03609 6.30354 3.08478 6.30893L3.15782 6.31704H3.3039L3.30067 6.31218L3.29578 6.30893L3.29092 6.30569L3.28767 6.30083L3.28444 6.29597L3.27955 6.29273L3.27468 6.28948L3.27144 6.28462L3.25521 6.27652L3.23898 6.26841L3.23575 6.26355L3.23086 6.26031L3.22599 6.25707L3.22275 6.25221L3.20652 6.2441L3.19028 6.236L3.18705 6.23113C3.18381 6.22896 3.13727 6.19439 3.04745 6.1274C2.95872 6.05933 2.86567 5.97126 2.76828 5.8632C2.6709 5.75514 2.57351 5.64168 2.47613 5.52283C2.37856 5.4037 2.29166 5.27624 2.21643 5.14193C2.1407 5.00686 2.06062 4.83504 1.97622 4.6265C1.8929 4.41903 1.8296 4.20995 1.78632 3.99924C1.74305 3.78853 1.7187 3.58052 1.71328 3.37521C1.70787 3.1699 1.71328 2.99432 1.72951 2.84844C1.74574 2.70256 1.7782 2.53777 1.82689 2.35408C1.87559 2.17039 1.94593 1.97589 2.03789 1.77058L2.17586 1.46262L2.18397 1.43831L2.19209 1.414L2.19697 1.41075L2.2002 1.40589L2.20345 1.40103L2.20832 1.39779L2.2132 1.40103L2.21643 1.40589L2.21968 1.41075L2.22455 1.414L2.22944 1.41724L2.23266 1.4221L2.23591 1.42696L2.24078 1.4302L2.2489 1.44641L2.25701 1.46262L2.2619 1.46586L2.26513 1.47072L2.48424 1.71385C2.63032 1.87594 2.80345 2.05693 3.00363 2.25683C3.20382 2.45673 3.31473 2.56046 3.33636 2.56803C3.35801 2.57667 3.38505 2.60152 3.41752 2.64259C3.44998 2.68258 3.55819 2.77821 3.74213 2.92948C3.92609 3.08075 4.16685 3.25636 4.46441 3.45625C4.76198 3.65615 5.092 3.85336 5.45449 4.04786C5.81699 4.24236 6.20653 4.41795 6.62311 4.57464C7.0397 4.73132 7.33186 4.83397 7.49957 4.8826C7.6673 4.93122 7.95404 4.99335 8.35981 5.06899C8.76558 5.14464 9.07127 5.19326 9.27685 5.21487C9.48244 5.23647 9.62312 5.2489 9.69885 5.25215L9.81247 5.25539L9.80924 5.23108L9.80435 5.20676L9.77189 5.00416C9.75025 4.86909 9.73943 4.67999 9.73943 4.43686C9.73943 4.19374 9.75837 3.96953 9.79624 3.76421C9.83412 3.5589 9.89093 3.3509 9.96666 3.14019C10.0424 2.92948 10.1165 2.76036 10.189 2.63287C10.2626 2.50644 10.3589 2.36219 10.4779 2.2001C10.597 2.03802 10.7512 1.87054 10.9405 1.69764C11.1299 1.52475 11.3463 1.37077 11.5897 1.2357C11.8332 1.10064 12.0577 0.997974 12.2633 0.927743C12.4689 0.857512 12.6421 0.811578 12.7827 0.789972C12.9234 0.768366 12.9937 0.755934 12.9937 0.752692Z" fill="#009BCB"/>
</svg>
