<svg width="59" height="59" viewBox="0 0 59 59" fill="none" xmlns="http://www.w3.org/2000/svg">
<path fill-rule="evenodd" clip-rule="evenodd" d="M29.1667 5.83333C25.0856 5.83258 21.0756 6.90226 17.5371 8.93558C13.9986 10.9689 11.0553 13.8948 9.00091 17.4211C6.94656 20.9475 5.85303 24.951 5.82948 29.032C5.80593 33.1131 6.85318 37.1289 8.8667 40.6787C10.2276 38.91 11.9771 37.478 13.9799 36.4933C15.9826 35.5086 18.185 34.9977 20.4167 35H37.9167C40.1484 34.9977 42.3508 35.5086 44.3535 36.4933C46.3563 37.478 48.1058 38.91 49.4667 40.6787C51.4802 37.1289 52.5275 33.1131 52.5039 29.032C52.4804 24.951 51.3868 20.9475 49.3325 17.4211C47.2781 13.8948 44.3348 10.9689 40.7963 8.93558C37.2578 6.90226 33.2478 5.83258 29.1667 5.83333ZM52.3338 46.8883C56.2335 41.8045 58.3428 35.5739 58.3334 29.1667C58.3334 13.0579 45.2755 0 29.1667 0C13.058 0 3.2822e-05 13.0579 3.2822e-05 29.1667C-0.00959637 35.5739 2.09976 41.8046 5.99962 46.8883L5.98503 46.9408L7.02045 48.1454C9.75595 51.3436 13.1524 53.9105 16.9757 55.6694C20.799 57.4282 24.9582 58.3371 29.1667 58.3333C35.0798 58.3442 40.8549 56.5481 45.7188 53.1854C47.7923 51.7528 49.6725 50.0588 51.313 48.1454L52.3484 46.9408L52.3338 46.8883ZM29.1667 11.6667C26.8461 11.6667 24.6205 12.5885 22.9795 14.2295C21.3386 15.8704 20.4167 18.096 20.4167 20.4167C20.4167 22.7373 21.3386 24.9629 22.9795 26.6039C24.6205 28.2448 26.8461 29.1667 29.1667 29.1667C31.4873 29.1667 33.7129 28.2448 35.3539 26.6039C36.9948 24.9629 37.9167 22.7373 37.9167 20.4167C37.9167 18.096 36.9948 15.8704 35.3539 14.2295C33.7129 12.5885 31.4873 11.6667 29.1667 11.6667Z" fill="url(#paint0_linear_79_32)"/>
<defs>
<linearGradient id="paint0_linear_79_32" x1="29.1667" y1="0" x2="29.1667" y2="58.3334" gradientUnits="userSpaceOnUse">
<stop offset="0.791667" stop-color="#F5F5F5"/>
<stop offset="1" stop-color="white" stop-opacity="0"/>
</linearGradient>
</defs>
</svg>
