<svg width="103" height="99" viewBox="0 0 103 99" fill="none" xmlns="http://www.w3.org/2000/svg">
<path d="M98.6678 27.3784V55.8434C98.6678 62.9596 96.2957 68.8898 92.1208 73.0647C87.9934 77.1921 82.0632 79.5642 74.947 79.5642V89.6693C74.947 93.4646 70.7248 95.7419 67.5936 93.6545L46.482 79.5642H36.4245C36.804 78.1409 36.9937 76.6703 36.9937 75.1521C36.9937 70.3131 35.1435 65.8537 32.1073 62.4853C28.6915 58.5951 23.6152 56.1755 18.0171 56.1755C12.7036 56.1755 7.86462 58.3579 4.40139 61.9161C3.97441 60.0184 3.78462 57.9783 3.78462 55.8434V27.3784C3.78462 13.146 13.2729 3.65765 27.5054 3.65765H74.947C89.1795 3.65765 98.6678 13.146 98.6678 27.3784Z" stroke="#292D32" stroke-width="7.11624" stroke-miterlimit="10" stroke-linecap="round" stroke-linejoin="round"/>
</svg>
