<svg width="20" height="15" viewBox="0 0 20 15" fill="none" xmlns="http://www.w3.org/2000/svg">
<path d="M10.4053 14.0312L6.34311 13.9553C5.02787 13.9289 3.70935 13.9817 2.41989 13.7076C0.458322 13.2981 0.319358 11.2902 0.173947 9.60593C-0.0264154 7.23809 0.0511507 4.82728 0.42926 2.4792C0.642715 1.16168 1.48275 0.375513 2.78183 0.289963C7.16718 -0.020512 11.5817 0.0162826 15.9573 0.16113C16.4194 0.174409 16.8847 0.246985 17.3404 0.329596C19.5897 0.732514 19.6446 3.00791 19.7904 4.92337C19.9358 6.85859 19.8744 8.80375 19.5965 10.7258C19.3735 12.3172 18.9469 13.6517 17.1465 13.7806C14.8907 13.949 12.6868 14.0847 10.4246 14.0415C10.4247 14.0312 10.4118 14.0312 10.4053 14.0312ZM8.01713 10.0023C9.71703 9.00485 11.3845 8.02406 13.0747 7.03334C11.3716 6.03593 9.70731 5.05514 8.01713 4.06442V10.0023Z" fill="#009BCB"/>
</svg>
